<svg width="116" height="61" viewBox="0 0 116 61" fill="none" xmlns="http://www.w3.org/2000/svg">
<path d="M22.4512 1.51367L20.4834 2.95117C18.2978 4.54837 17.0027 5.78136 16.5977 6.64941C16.1766 7.49555 16.2066 8.50027 16.6875 9.66309C17.1905 10.8102 18.796 13.2374 21.5049 16.9443L38.5781 40.3076C40.9342 43.5318 42.4966 45.4858 43.2646 46.1699C44.0326 46.8538 44.9677 47.1472 46.0693 47.0488C47.1768 46.9125 49.0092 45.9097 51.5664 44.041L54.9443 41.5732C57.6766 39.5766 59.5217 37.857 60.4805 36.416C61.461 34.9591 61.9483 32.9877 61.9424 30.502C61.9447 30.1385 61.9624 29.7512 61.9805 29.3428C62.0869 26.9396 62.2257 23.7962 59.5703 20.373C59.2283 19.9321 58.9201 19.5335 58.6406 19.1729C56.3821 16.2575 56.0203 15.7915 55.1748 15.002C54.2248 14.1149 53.2668 13.7211 52.3008 13.8213C51.3565 13.9056 49.7582 14.7708 47.5068 16.416L46.5234 17.1348L45.417 15.6211L66.7617 0.0234375L67.8682 1.53711L65.9004 2.97461C63.7147 4.57183 62.4197 5.80479 62.0146 6.67285C61.5936 7.51899 61.6236 8.52369 62.1045 9.68652C62.6075 10.8336 64.213 13.2609 66.9219 16.9678L83.9951 40.3311C86.3513 43.5553 87.9136 45.5093 88.6816 46.1934C89.4496 46.8772 90.3847 47.1706 91.4863 47.0723C92.5938 46.936 94.4262 45.9331 96.9834 44.0645L100.361 41.5967C103.094 39.6001 104.939 37.8804 105.897 36.4395C106.878 34.9825 107.365 33.0111 107.359 30.5254C107.375 28.0235 106.585 24.6471 104.987 20.3965L106.528 19.2705L115.795 32.6396L78.0244 60.2412L76.918 58.7275L78.2295 57.7695C80.1311 56.3799 81.2661 55.1797 81.6348 54.1699C82.0252 53.1442 81.9499 52.0552 81.4092 50.9023C80.8743 49.7116 79.2446 47.2516 76.5195 43.5225L69.1865 33.4873L32.6074 60.2178L31.501 58.7041L32.8125 57.7461C34.7142 56.3564 35.8491 55.1562 36.2178 54.1465C36.6082 53.1209 36.5337 52.0317 35.9932 50.8789C35.4583 49.6882 33.8277 47.2282 31.1025 43.499L15.1113 21.6162C12.5144 18.0625 10.7298 15.8498 9.75781 14.9785C8.80775 14.0914 7.84983 13.6976 6.88379 13.7979C5.93949 13.8822 4.34124 14.7473 2.08984 16.3926L1.10645 17.1113L0 15.5977L21.3447 0L22.4512 1.51367Z" fill="black"/>
</svg>
