<svg width="108" height="66" viewBox="0 0 108 66" fill="none" xmlns="http://www.w3.org/2000/svg">
<path fill-rule="evenodd" clip-rule="evenodd" d="M103.834 0C104.081 0 104.369 0.390659 105.006 1.59766C105.471 2.47541 106.022 3.65452 106.233 4.21777C106.545 5.0464 106.619 5.56244 106.622 8.59863L105.667 9.9082C105.143 10.6288 104.557 11.5137 104.363 11.874C104.172 12.2344 103.788 13.0625 103.515 13.7158C103.182 14.5036 103.016 15.1789 103.016 15.7227C103.016 16.173 103.107 16.7449 103.219 16.9922C103.332 17.2398 103.7 17.9225 104.039 18.5068C104.336 19.0185 104.584 19.5351 104.64 19.7461L104.663 19.8867C104.718 20.094 104.967 20.5948 105.264 21.0879C105.603 21.6512 106.23 22.4612 106.656 22.8887C107.241 23.4733 107.493 23.8884 107.678 24.5664C107.814 25.061 107.925 26.0568 107.924 26.7773C107.924 27.4979 107.82 28.4559 107.692 28.9062C107.565 29.3568 107.346 30.5177 107.203 31.4854C107.059 32.4713 106.794 33.5526 106.599 33.9424C106.407 34.3257 105.818 35.0989 105.289 35.6621C104.761 36.2249 104.326 36.7759 104.327 36.8896C104.327 37.0027 99.8922 41.4786 94.4697 46.8389C87.8865 53.3468 84.2953 57.0187 83.6563 57.8936C83.1289 58.6141 82.1296 59.7036 81.4336 60.3145C80.587 61.0579 79.83 61.5589 79.1455 61.8291C78.281 62.1713 77.8482 62.2334 76.3613 62.2334C75.3935 62.2334 73.9915 62.1423 73.2481 62.0293C72.3803 61.8983 71.8958 61.7501 71.8975 61.6191C71.8998 61.485 72.2784 61.3854 73.0049 61.3281C73.6125 61.2806 74.5163 61.1378 75.0107 61.0117C75.5053 60.8856 76.318 60.6339 76.8125 60.4521C77.3071 60.2687 78.2109 59.7472 78.8184 59.292C79.4259 58.8383 80.2583 58.0429 80.666 57.5254C81.0722 57.0079 81.6273 56.141 81.8975 55.6006C82.1954 55.0029 82.3867 54.3608 82.3867 53.9629C82.3883 53.5731 82.215 52.9772 81.958 52.4893C81.7222 52.0389 81.1355 51.1918 80.6524 50.6055C80.1698 50.0182 76.916 46.693 73.4219 43.2119C67.7636 37.5749 66.9412 36.8163 65.9209 36.2988C65.2904 35.9779 64.4063 35.6357 63.9561 35.5391C63.4222 35.4228 62.6228 35.4096 61.6631 35.498C60.4202 35.6143 60.0369 35.724 59.2197 36.2021C58.5351 36.6002 56.2206 38.7511 51.3584 43.5068C47.5688 47.2129 42.9159 51.8196 41.0195 53.7422C39.1248 55.6648 36.803 58.056 35.8613 59.0566C34.4676 60.5371 33.9399 60.9764 33.0195 61.4316C32.3285 61.7723 31.6304 62.2778 31.2178 62.7363C30.8493 63.1475 30.1779 64.0502 29.7276 64.7412C29.2772 65.4305 28.7974 65.9967 28.6631 66C28.4619 66.0031 28.4358 65.8347 28.5176 65.0605C28.5765 64.5054 28.8415 63.6454 29.1641 62.9707C29.4736 62.3222 30.0345 61.5045 30.457 61.0869C30.8666 60.6807 31.7506 59.8722 32.4219 59.2861C33.0917 58.6998 33.9676 57.7787 34.3672 57.2383C34.7667 56.6979 35.2685 55.8879 35.4815 55.4375C35.6927 54.9871 35.8695 54.3232 35.8711 53.9629C35.8743 53.565 35.7092 52.9869 35.4473 52.4893C35.2114 52.0389 34.6231 51.1918 34.1416 50.6055C33.6593 50.0184 29.4294 45.7087 24.7412 41.0254C19.9721 36.2612 16.2192 32.3855 16.2168 32.2227C16.2168 32.0654 16.0843 31.7326 15.9238 31.4854C15.7634 31.2381 15.5417 30.8882 15.4336 30.708C15.3255 30.5279 14.8363 29.7169 14.3467 28.9062C13.857 28.0956 13.2725 27.0258 13.0498 26.5312C12.8254 26.0367 12.2681 25.2438 11.8096 24.7705C11.351 24.2973 10.5894 23.6937 10.1162 23.4268C9.64307 23.1583 8.99815 22.8924 8.68361 22.835C8.23495 22.7515 7.8792 22.8398 7.04591 23.2393C6.45961 23.5193 5.3356 24.2288 4.54786 24.8135C3.13307 25.8631 3.10372 25.8994 2.2588 27.6367C1.48252 29.2319 1.39683 29.5207 1.34278 30.708C1.30024 31.6757 1.37605 32.3604 1.63478 33.3281C1.82627 34.0483 2.03369 34.8143 2.09767 35.0293C2.19423 35.3533 2.1619 35.4113 1.91017 35.3574C1.71037 35.3148 1.46715 34.9295 1.20021 34.2285C0.975836 33.6438 0.615915 32.4648 0.396496 31.6084C0.177042 30.7519 -0.00162656 29.6838 1.11699e-05 29.2334C4.40358e-05 28.7831 0.0818103 27.973 0.181652 27.4326C0.279892 26.8923 0.53194 26.0813 0.743175 25.6309C1.01504 25.0446 1.46607 24.5282 2.32423 23.8125C2.98475 23.2617 5.84584 20.4963 8.68361 17.665C11.5197 14.8338 14.6291 11.6356 15.5908 10.5576C17.1057 8.86094 17.5008 8.51626 18.5391 7.99219C19.1991 7.65809 20.4753 7.12112 21.376 6.79688C22.2765 6.47271 23.3437 6.13213 23.75 6.04199C24.1545 5.95028 25.0773 5.7713 25.7979 5.64355C26.5182 5.51586 27.1634 5.40984 27.2305 5.4082C27.2976 5.40667 27.3535 5.51623 27.3535 5.65039C27.3535 5.78632 27.1529 5.93751 26.9024 5.98828C26.6543 6.03796 25.7508 6.49237 24.8965 6.99805C24.0401 7.50401 22.7141 8.16926 21.9492 8.47559C21.1828 8.78184 20.3357 9.17018 20.0654 9.33887C19.7952 9.50757 19.2611 9.98056 18.8779 10.3916C18.4325 10.8682 18.0889 11.4468 17.9219 11.9971C17.7778 12.4703 17.5839 13.0775 17.4922 13.3477C17.3988 13.6179 17.2879 14.871 17.1651 18.4248L17.7559 19.7754C18.0801 20.5189 18.3457 21.2009 18.3457 21.291C18.3462 21.3816 18.5852 21.7657 18.8779 22.1436C19.1711 22.5235 20.6809 24.1273 22.2334 25.7061C23.7855 27.286 25.0562 28.6695 25.0586 28.7832C25.0586 28.8961 25.1699 29.026 25.3057 29.0703C25.4399 29.1145 25.861 29.6856 26.2393 30.3389C26.6176 30.9923 27.2944 32.3373 27.7432 33.3281C28.1935 34.3189 28.8194 35.5357 29.1338 36.0303C29.4487 36.5252 31.2597 38.4789 33.1592 40.3701C35.0589 42.2616 37.2388 44.2794 38.002 44.8525C38.7667 45.4273 39.7586 46.0813 40.209 46.3057C40.6593 46.53 41.3963 46.7535 41.8467 46.8027C42.4526 46.8682 42.9214 46.7985 43.6484 46.5332C44.1889 46.3367 45.1468 45.7906 45.7774 45.3223C46.4079 44.8522 48.2902 43.1053 49.959 41.4365C51.6276 39.7695 53.3487 37.9257 53.7813 37.3408C54.2136 36.7562 54.778 35.8334 55.0352 35.293C55.2923 34.7525 55.6286 33.8307 55.7793 33.2461C55.9807 32.4634 56.0297 31.7903 55.9658 30.708C55.9091 29.7256 55.7372 28.8246 55.4502 28.0059C55.2127 27.3311 54.7207 26.2252 54.3555 25.5488C53.9919 24.8741 53.4039 23.9342 53.0518 23.4609C52.698 22.9877 52.1333 22.4604 51.7959 22.29C51.4585 22.1181 50.9228 21.9242 50.6084 21.8604C50.1468 21.7655 49.8286 21.8429 48.9707 22.2588C48.3844 22.5438 47.2431 23.264 46.4326 23.8633C45.622 24.461 44.3425 25.5831 43.5908 26.3545C42.502 27.4744 42.0913 28.043 41.5674 29.1514C41.2071 29.9178 40.7073 31.0599 40.46 31.6904C40.2127 32.321 39.7982 33.667 39.5361 34.6807C39.2497 35.7968 38.983 36.5241 38.8584 36.5234C38.7192 36.5218 38.6534 36.2317 38.6533 35.6211C38.6533 35.1265 38.8349 33.7437 39.0576 32.5498C39.2803 31.356 39.6128 29.938 39.7979 29.3975C39.9829 28.857 40.4094 27.9149 40.7451 27.3057C41.081 26.6964 41.7624 25.7057 42.2568 25.1064C42.7518 24.5051 44.4466 22.7644 46.0234 21.2383C47.599 19.7119 50.5698 16.7589 52.625 14.6758C54.6784 12.5945 56.7485 10.412 57.2236 9.82715C57.7001 9.24262 58.4562 8.43164 58.9082 8.02539C59.3586 7.61924 60.4959 6.90491 61.4326 6.43652C62.9326 5.68656 63.3832 5.54603 65.1846 5.25781C66.3095 5.0777 67.8943 4.88384 68.7051 4.82812C69.5156 4.77081 70.7686 4.61862 71.4893 4.48926C72.2098 4.3599 73.4447 4.25523 74.2324 4.25684C75.3964 4.25847 75.6658 4.30431 75.666 4.50391C75.666 4.69549 75.4431 4.74932 74.6426 4.75098C74.0792 4.75098 72.9914 4.9022 72.2266 5.08398C71.4603 5.26737 70.3191 5.49353 69.6885 5.58691C69.0581 5.68024 68.0623 5.89771 67.4775 6.07129C66.8913 6.24325 65.713 6.67587 64.8565 7.03125C64.0003 7.38651 62.9709 7.94621 62.5645 8.27539C62.1583 8.60457 61.4582 9.22068 61.0078 9.64648C60.5574 10.0707 59.7652 10.9311 59.2461 11.5566C58.727 12.1822 58.1092 13.0992 57.875 13.5938C57.618 14.1359 57.384 15.0155 57.2891 15.8047C57.1516 16.9422 57.1677 17.1784 57.418 17.6055C57.5768 17.8757 57.887 18.3186 58.1065 18.5889C58.332 18.8636 64.0476 24.6474 70.8135 31.4443C78.854 39.5226 83.6013 44.1707 84.5107 44.8525C85.2756 45.4274 86.2703 46.0813 86.7207 46.3057C87.1711 46.53 87.9082 46.7536 88.3584 46.8027C88.9641 46.8682 89.4324 46.7983 90.1592 46.5332C90.6996 46.3367 91.6576 45.7906 92.2881 45.3223C92.9186 44.8522 94.8009 43.1053 96.4697 41.4365C98.1383 39.7696 99.8593 37.9258 100.292 37.3408C100.724 36.7562 101.29 35.8334 101.547 35.293C101.804 34.7525 102.128 33.8685 102.271 33.3281C102.411 32.7878 102.526 31.8297 102.526 31.1992C102.526 30.5687 102.421 29.646 102.292 29.1514C102.164 28.6568 101.907 27.8451 101.722 27.3506C101.537 26.856 101.026 25.8241 100.587 25.0576C99.9237 23.8999 99.6189 23.5477 98.7822 22.9697C98.2288 22.5866 97.4624 22.1918 97.0791 22.0918C96.5076 21.9411 96.2515 21.9573 95.6455 22.1816C95.2392 22.3324 94.319 22.8513 93.5986 23.3359C92.8781 23.819 91.7579 24.7541 91.1094 25.4141C89.9663 26.5752 89.9153 26.6608 89.4912 28.1689C89.0949 29.5773 89.0586 29.9297 89.1143 31.8945C89.1618 33.5552 89.1289 34.0645 88.9717 34.0645C88.8586 34.0633 88.6475 33.6777 88.502 33.2051C88.3251 32.6368 88.2087 31.4836 88.1563 29.8066C88.0809 27.3585 88.0943 27.2189 88.5381 25.876C88.7903 25.1096 89.1848 24.2627 89.4141 23.9941C89.6434 23.7239 90.0531 23.3197 90.3232 23.0938C90.5936 22.8676 92.3986 21.1563 94.3359 19.291C96.2717 17.424 99.2936 14.3893 101.051 12.5469C103.54 9.93501 104.311 9.02103 104.547 8.40527C104.714 7.97129 104.889 7.02625 104.935 6.30566C104.998 5.3214 104.93 4.58898 104.663 3.35742C104.468 2.45688 104.124 1.38801 103.901 0.983398C103.679 0.578881 103.499 0.190194 103.502 0.123047C103.506 0.0560474 103.654 8.79069e-05 103.834 0Z" fill="black"/>
</svg>
