<svg width="28" height="24" viewBox="0 0 28 24" fill="none" xmlns="http://www.w3.org/2000/svg">
<path d="M14.9309 10.6903L21.2757 18.2478C23.5412 20.9381 24.9813 22.4366 25.5959 22.7434C26.2105 23.0383 27.0118 23.1858 28 23.1858V24H15.8528V23.1858C17.0699 23.1858 17.9195 23.0796 18.4015 22.8673C18.8956 22.6431 19.1427 22.2773 19.1427 21.7699C19.1427 21.4631 19.0282 21.1327 18.7992 20.7788C18.5823 20.413 18.0099 19.6755 17.082 18.5664L12.7076 13.292L8.85733 17.8584C7.95352 18.9322 7.36303 19.6873 7.08586 20.1239C6.80869 20.5605 6.67011 20.9735 6.67011 21.3628C6.67011 22.5664 7.61007 23.174 9.48999 23.1858V24H0V23.1858C1.02432 23.1268 1.9462 22.9086 2.76566 22.531C3.59716 22.1416 4.36238 21.6047 5.06133 20.9204C5.76028 20.236 6.75447 19.0914 8.0439 17.4867L12.1472 12.6549L3.61524 2.61947C3.20551 2.10029 2.72348 1.66962 2.16914 1.32743C1.62686 0.985251 0.903809 0.814159 0 0.814159V0H10.448V0.814159H10.1046C8.73079 0.814159 8.0439 1.17994 8.0439 1.9115C8.0439 2.20649 8.14633 2.51917 8.35119 2.84956C8.56811 3.17994 9.06219 3.79351 9.83344 4.69027L14.3344 10.0354L18.4015 5.04425C19.2692 3.9941 19.7934 3.32743 19.9742 3.04425C20.167 2.74926 20.2634 2.45428 20.2634 2.15929C20.2634 1.66372 20.0224 1.31563 19.5403 1.11504C19.0583 0.914454 18.2389 0.814159 17.082 0.814159V0H26.2828V0.814159C24.7162 0.814159 23.3966 1.26844 22.3241 2.17699C21.2636 3.07375 20.0887 4.31858 18.7992 5.9115L14.9309 10.6903Z" fill="black"/>
</svg>
